<svg width="509" height="564" viewBox="0 0 509 564" fill="none" xmlns="http://www.w3.org/2000/svg">
<path d="M2.37572 113.96C2.80801 111.892 3.61525 109.918 4.76113 108.137C5.20905 107.314 5.58407 106.496 6.10488 105.746C7.09967 104.257 8.22459 102.856 9.46939 101.569V101.194L101.235 9.65292C108.782 2.10079 119.787 -0.847086 130.099 1.91851C140.411 4.67891 148.463 12.7362 151.229 23.0492C153.99 33.3617 151.042 44.3665 143.495 51.9132L103.026 92.3825H403.999C431.723 92.3825 458.311 103.398 477.916 123.003C497.522 142.607 508.531 169.196 508.531 196.92V273.451C508.531 284.122 502.838 293.981 493.599 299.315C484.359 304.653 472.974 304.653 463.735 299.315C454.495 293.981 448.803 284.121 448.803 273.451V196.92C448.803 185.034 444.079 173.639 435.678 165.237C427.277 156.836 415.881 152.117 404.001 152.117H103.027L143.497 192.737C151.044 200.284 153.991 211.289 151.231 221.601C148.465 231.914 140.413 239.965 130.1 242.732C119.788 245.498 108.783 242.545 101.236 234.998L9.76699 143.383V143.008C8.52221 141.716 7.3973 140.321 6.4077 138.826C5.88687 138.081 5.51184 137.185 5.06395 136.435C3.91811 134.659 3.10551 132.685 2.67324 130.612C2.67324 129.789 2.15241 129.044 1.92845 128.149C1.15241 124.279 1.15241 120.294 1.92845 116.425C1.77741 115.529 2.15176 114.783 2.37572 113.96Z" fill="#DCEEF0"/>
<path d="M30.6689 253.88C38.5908 253.88 46.1849 257.026 51.7889 262.63C57.3879 268.229 60.5337 275.828 60.5337 283.745V367.745C60.5337 379.63 65.2577 391.026 73.6588 399.427C82.0599 407.829 93.4561 412.547 105.336 412.547H406.309L365.84 371.927C358.293 364.38 355.345 353.375 358.106 343.063C360.871 332.751 368.923 324.699 379.236 321.933C389.549 319.167 400.554 322.12 408.1 329.667L499.496 421.282C500.887 422.672 502.137 424.198 503.231 425.839C503.231 426.287 503.679 426.735 503.976 427.183C504.736 428.375 505.408 429.625 505.991 430.917C505.991 431.589 506.366 432.261 506.59 432.933C507.038 434.099 507.413 435.297 507.71 436.516C508.491 440.407 508.491 444.417 507.71 448.313C507.434 449.506 507.085 450.678 506.663 451.823C506.663 452.495 506.663 453.24 506.064 453.839C505.502 455.073 504.851 456.271 504.127 457.422C504.127 457.943 503.606 458.469 503.304 458.917C502.226 460.495 501.002 461.974 499.642 463.318L408.101 555.012C400.554 562.564 389.549 565.511 379.237 562.746C368.924 559.985 360.873 551.928 358.106 541.615C355.346 531.303 358.294 520.298 365.841 512.751L406.31 472.282H105.337C77.6127 472.282 51.0247 461.266 31.4193 441.662C11.814 422.058 0.804672 395.469 0.804672 367.745V283.745C0.804672 275.828 3.95053 268.229 9.54946 262.63C15.1536 257.026 22.7468 253.88 30.6689 253.88Z" fill="#DCEEF0"/>
</svg>
